<?xml version="1.0" encoding="UTF-8" standalone="no"?>
<svg
   xmlns:dc="http://purl.org/dc/elements/1.1/"
   xmlns:cc="http://creativecommons.org/ns#"
   xmlns:rdf="http://www.w3.org/1999/02/22-rdf-syntax-ns#"
   xmlns:svg="http://www.w3.org/2000/svg"
   xmlns="http://www.w3.org/2000/svg"
   xmlns:sodipodi="http://sodipodi.sourceforge.net/DTD/sodipodi-0.dtd"
   xmlns:inkscape="http://www.inkscape.org/namespaces/inkscape"
   width="32"
   height="32"
   viewBox="0 0 32 32"
   fill="none"
   version="1.1"
   id="svg6"
   sodipodi:docname="playing.svg"
   inkscape:version="1.0.2 (1.0.2+r75+1)">
  <metadata
     id="metadata12">
    <rdf:RDF>
      <cc:Work
         rdf:about="">
        <dc:format>image/svg+xml</dc:format>
        <dc:type
           rdf:resource="http://purl.org/dc/dcmitype/StillImage" />
      </cc:Work>
    </rdf:RDF>
  </metadata>
  <defs
     id="defs10" />
  <sodipodi:namedview
     pagecolor="#ffffff"
     bordercolor="#666666"
     borderopacity="1"
     objecttolerance="10"
     gridtolerance="10"
     guidetolerance="10"
     inkscape:pageopacity="0"
     inkscape:pageshadow="2"
     inkscape:window-width="1366"
     inkscape:window-height="704"
     id="namedview8"
     showgrid="false"
     inkscape:zoom="8.3125"
     inkscape:cx="-2.3837909"
     inkscape:cy="14.500475"
     inkscape:window-x="0"
     inkscape:window-y="0"
     inkscape:window-maximized="1"
     inkscape:current-layer="svg6"
     inkscape:document-rotation="0" />
  <path
     class="cls-1"
     d="m 17.017433,27.754328 v 1.89995 h 5.991831 a 0.74897932,0.74897932 0 0 1 0,1.497958 H 9.5276387 a 0.74897932,0.74897932 0 0 1 0,-1.497958 h 5.9918303 v -1.89995 C 9.6727567,27.366965 5.0337627,22.492163 5.0337627,16.547139 a 0.74897932,0.74897932 0 0 1 1.497956,0 c 0,5.117051 3.9678373,9.321283 8.9877503,9.705134 v -1.12698 C 11.335724,24.743782 8.0296737,21.201344 8.0296737,16.922215 h 3.7449013 a 0.74897956,0.74897956 0 0 0 0,-1.497959 H 8.0296737 v -1.498544 h 3.7449013 a 0.74897956,0.74897956 0 0 0 0,-1.497959 H 8.0296737 v -1.497958 h 3.7449013 a 0.74897956,0.74897956 0 1 0 0,-1.4979594 H 8.0296737 c 0,-4.531325 3.7074583,-8.238772 8.2387773,-8.238772 4.531328,0 8.238778,3.707447 8.238778,8.238772 h -3.744902 a 0.74897956,0.74897956 0 0 0 0,1.4979594 h 3.744902 v 1.497958 h -3.744902 a 0.74897956,0.74897956 0 0 0 0,1.497959 h 3.744902 v 1.497958 h -3.744902 a 0.74898,0.74898 0 1 0 0,1.49796 h 3.744902 c 0,4.278544 -3.306042,7.820982 -7.489796,8.203078 v 1.127565 c 5.019913,-0.383851 8.987752,-4.588083 8.987752,-9.705134 a 0.74897932,0.74897932 0 0 1 1.497955,0 c 0,5.945024 -4.638985,10.819826 -10.485707,11.207189 z"
     id="path8"
     style="fill:#ffffff;stroke-width:0.0585141" />
</svg>
